<?xml version="1.0" encoding="UTF-8" standalone="no"?>
<!DOCTYPE svg PUBLIC "-//W3C//DTD SVG 1.1//EN"
 "http://www.w3.org/Graphics/SVG/1.1/DTD/svg11.dtd">
<!-- Generated by graphviz version 11.0.0 (0)
 -->
<!-- Pages: 1 -->
<svg width="759pt" height="468pt"
 viewBox="0.00 0.00 759.08 467.86" xmlns="http://www.w3.org/2000/svg" xmlns:xlink="http://www.w3.org/1999/xlink">
<g id="graph0" class="graph" transform="scale(1 1) rotate(0) translate(4 463.86)">
<polygon fill="white" stroke="none" points="-4,4 -4,-463.86 755.08,-463.86 755.08,4 -4,4"/>
<!-- 4162 -->
<g id="node1" class="node">
<title>4162</title>
<ellipse fill="none" stroke="#2e0da6" cx="574.48" cy="-163.05" rx="36.48" ry="18"/>
<text text-anchor="middle" x="574.48" y="-158.38" font-family="Times,serif" font-size="14.00">4162</text>
</g>
<!-- 25858 -->
<g id="node2" class="node">
<title>25858</title>
<ellipse fill="none" stroke="#2e0da6" cx="42.79" cy="-162.78" rx="42.79" ry="18"/>
<text text-anchor="middle" x="42.79" y="-158.11" font-family="Times,serif" font-size="14.00">25858</text>
</g>
<!-- 23461 -->
<g id="node3" class="node">
<title>23461</title>
<ellipse fill="none" stroke="#2e0da6" cx="708.29" cy="-18" rx="42.79" ry="18"/>
<text text-anchor="middle" x="708.29" y="-13.32" font-family="Times,serif" font-size="14.00">23461</text>
</g>
<!-- 2926 -->
<g id="node4" class="node">
<title>2926</title>
<ellipse fill="none" stroke="#2e0da6" cx="489.04" cy="-253.94" rx="36.48" ry="18"/>
<text text-anchor="middle" x="489.04" y="-249.26" font-family="Times,serif" font-size="14.00">2926</text>
</g>
<!-- 4401 -->
<g id="node5" class="node">
<title>4401</title>
<ellipse fill="none" stroke="#2e0da6" cx="236.15" cy="-205.78" rx="36.48" ry="18"/>
<text text-anchor="middle" x="236.15" y="-201.1" font-family="Times,serif" font-size="14.00">4401</text>
</g>
<!-- 3377 -->
<g id="node6" class="node">
<title>3377</title>
<ellipse fill="none" stroke="#2e0da6" cx="548.12" cy="-360.78" rx="36.48" ry="18"/>
<text text-anchor="middle" x="548.12" y="-356.11" font-family="Times,serif" font-size="14.00">3377</text>
</g>
<!-- 703 -->
<g id="node7" class="node">
<title>703</title>
<ellipse fill="none" stroke="#2e0da6" cx="603.03" cy="-441.86" rx="30.16" ry="18"/>
<text text-anchor="middle" x="603.03" y="-437.19" font-family="Times,serif" font-size="14.00">703</text>
</g>
<!-- 3415 -->
<g id="node8" class="node">
<title>3415</title>
<ellipse fill="none" stroke="#2e0da6" cx="357.19" cy="-233.48" rx="36.48" ry="18"/>
<text text-anchor="middle" x="357.19" y="-228.81" font-family="Times,serif" font-size="14.00">3415</text>
</g>
<!-- 4888 -->
<g id="node9" class="node">
<title>4888</title>
<ellipse fill="none" stroke="#2e0da6" cx="651.48" cy="-82.67" rx="36.48" ry="18"/>
<text text-anchor="middle" x="651.48" y="-77.99" font-family="Times,serif" font-size="14.00">4888</text>
</g>
<!-- 7423 -->
<g id="node10" class="node">
<title>7423</title>
<ellipse fill="none" stroke="#2e0da6" cx="130.07" cy="-175.02" rx="36.48" ry="18"/>
<text text-anchor="middle" x="130.07" y="-170.35" font-family="Times,serif" font-size="14.00">7423</text>
</g>
<!-- 4162&#45;&gt;4888 -->
<g id="edge1" class="edge">
<title>4162&#45;&gt;4888</title>
<path fill="none" stroke="#8373bf" d="M590.43,-146.4C601.17,-135.19 615.52,-120.21 627.61,-107.59"/>
<polygon fill="#8373bf" stroke="#8373bf" points="630.11,-110.04 634.5,-100.4 625.05,-105.2 630.11,-110.04"/>
<text text-anchor="middle" x="579.02" y="-130.94" font-family="Times,serif" font-size="14.00">traverse</text>
</g>
<!-- 2926&#45;&gt;4162 -->
<g id="edge2" class="edge">
<title>2926&#45;&gt;4162</title>
<path fill="none" stroke="#8373bf" d="M504.71,-237.27C517.72,-223.43 536.41,-203.55 551.17,-187.85"/>
<polygon fill="#8373bf" stroke="#8373bf" points="553.57,-190.4 557.87,-180.72 548.47,-185.61 553.57,-190.4"/>
<text text-anchor="middle" x="486.69" y="-216.51" font-family="Times,serif" font-size="14.00">get_inverse</text>
</g>
<!-- 2926&#45;&gt;3415 -->
<g id="edge7" class="edge">
<title>2926&#45;&gt;3415</title>
<path fill="none" stroke="#8373bf" d="M454.06,-248.51C438.56,-246.1 420.11,-243.24 403.5,-240.66"/>
<polygon fill="#8373bf" stroke="#8373bf" points="404.26,-237.24 393.84,-239.17 403.18,-244.16 404.26,-237.24"/>
<text text-anchor="middle" x="387.53" y="-248.54" font-family="Times,serif" font-size="14.00">get_inverse</text>
</g>
<!-- 4401&#45;&gt;7423 -->
<g id="edge3" class="edge">
<title>4401&#45;&gt;7423</title>
<path fill="none" stroke="#8373bf" d="M204.32,-196.55C194.36,-193.66 183.2,-190.43 172.62,-187.36"/>
<polygon fill="#8373bf" stroke="#8373bf" points="173.91,-184.09 163.33,-184.67 171.96,-190.81 173.91,-184.09"/>
<text text-anchor="middle" x="147.22" y="-195.91" font-family="Times,serif" font-size="14.00">get_inverse</text>
</g>
<!-- 3377&#45;&gt;2926 -->
<g id="edge4" class="edge">
<title>3377&#45;&gt;2926</title>
<path fill="none" stroke="#8373bf" d="M538.37,-343.14C529.09,-326.36 514.99,-300.86 504.24,-281.42"/>
<polygon fill="#8373bf" stroke="#8373bf" points="507.45,-279.99 499.55,-272.93 501.32,-283.38 507.45,-279.99"/>
<text text-anchor="middle" x="491.3" y="-316.23" font-family="Times,serif" font-size="14.00">traverse</text>
</g>
<!-- 703&#45;&gt;3377 -->
<g id="edge9" class="edge">
<title>703&#45;&gt;3377</title>
<path fill="none" stroke="#8373bf" d="M591.65,-425.06C584.31,-414.23 574.61,-399.9 566.23,-387.52"/>
<polygon fill="#8373bf" stroke="#8373bf" points="569.22,-385.69 560.71,-379.37 563.42,-389.62 569.22,-385.69"/>
<text text-anchor="middle" x="537.69" y="-410.24" font-family="Times,serif" font-size="14.00">get_inverse</text>
</g>
<!-- 3415&#45;&gt;4401 -->
<g id="edge5" class="edge">
<title>3415&#45;&gt;4401</title>
<path fill="none" stroke="#8373bf" d="M323.8,-225.84C310.44,-222.78 294.85,-219.21 280.56,-215.94"/>
<polygon fill="#8373bf" stroke="#8373bf" points="281.44,-212.55 270.91,-213.73 279.88,-219.38 281.44,-212.55"/>
<text text-anchor="middle" x="302.18" y="-207.59" font-family="Times,serif" font-size="14.00">traverse</text>
</g>
<!-- 4888&#45;&gt;23461 -->
<g id="edge6" class="edge">
<title>4888&#45;&gt;23461</title>
<path fill="none" stroke="#8373bf" d="M666.11,-66.02C672.07,-59.24 679.08,-51.25 685.67,-43.75"/>
<polygon fill="#8373bf" stroke="#8373bf" points="688.14,-46.23 692.11,-36.41 682.89,-41.62 688.14,-46.23"/>
<text text-anchor="middle" x="645.89" y="-41.58" font-family="Times,serif" font-size="14.00">traverse</text>
</g>
<!-- 7423&#45;&gt;25858 -->
<g id="edge8" class="edge">
<title>7423&#45;&gt;25858</title>
<path fill="none" stroke="#8373bf" d="M94.57,-170.05C94.46,-170.03 94.34,-170.01 94.23,-170"/>
<polygon fill="#8373bf" stroke="#8373bf" points="95.57,-166.65 85.18,-168.73 94.6,-173.58 95.57,-166.65"/>
<text text-anchor="middle" x="64.4" y="-173.97" font-family="Times,serif" font-size="14.00">traverse</text>
</g>
</g>
</svg>
